<svg width="94" height="51" viewBox="0 0 94 51" fill="none" xmlns="http://www.w3.org/2000/svg">
<g clip-path="url(#clip0_55_2831)">
<path d="M20.7193 40.4114C20.8848 40.6232 20.9731 40.9018 20.9844 41.2472C20.9969 41.594 20.9788 41.9178 20.9299 42.2187C20.8797 42.5195 20.8923 42.8562 20.9675 43.2286C20.9913 43.3176 21.022 43.4815 21.0596 43.7203C21.0959 43.9605 21.1392 44.1602 21.1893 44.3194C21.2382 44.4786 21.3084 44.6203 21.3999 44.7444C21.5152 44.9049 21.6549 44.8564 21.8191 44.5987C21.9094 44.457 22.041 44.1777 22.2139 43.7608C22.3869 43.3439 22.5598 43.0424 22.7328 42.8562C22.8982 42.6889 23.0442 42.5985 23.1708 42.585C23.2987 42.5715 23.4491 42.6443 23.622 42.8036C23.795 42.9816 23.9949 43.323 24.2218 43.8276C24.4474 44.3336 24.6755 44.6661 24.9061 44.8253C25.0051 44.8874 25.1204 44.7855 25.252 44.5197C25.4337 44.1919 25.5409 43.8128 25.5735 43.3824C25.6073 42.952 25.6073 42.5816 25.5735 42.2713C25.5409 41.961 25.5741 41.6156 25.6731 41.2351C25.7145 41.084 25.8235 40.9889 26.0002 40.9497C26.177 40.9093 26.348 40.9464 26.5135 41.0611C26.6777 41.1771 26.7723 41.3505 26.7974 41.5812C26.8951 42.5297 26.8744 43.3561 26.7353 44.0603C26.5949 44.7646 26.2409 45.3212 25.6731 45.73C25.1542 46.0929 24.6397 46.1415 24.1296 45.8757C23.9479 45.7866 23.7518 45.5647 23.5412 45.2099C23.3319 44.855 23.2028 44.6736 23.1539 44.6655C23.1038 44.656 23.0273 44.7424 22.9246 44.9245C22.8218 45.1066 22.6939 45.3151 22.541 45.5499C22.3894 45.7846 22.2434 45.9418 22.103 46.0214C21.831 46.1901 21.5409 46.2764 21.2326 46.2805C20.923 46.2845 20.6736 46.1759 20.4843 45.9546C20.1559 45.4851 19.9153 44.9468 19.7624 44.3396C19.6095 43.7325 19.5418 43.1409 19.5594 42.5647C19.5756 41.9886 19.6045 41.3815 19.6458 40.7433C19.6784 40.4505 19.8307 40.2711 20.1027 40.205C20.3746 40.1375 20.5802 40.2063 20.7193 40.4114Z" fill="black"/>
<path d="M30.0698 46.5535C30.0034 46.509 29.9351 46.4179 29.8649 46.2803C29.7947 46.1427 29.7308 46.0739 29.6731 46.0739C29.5578 46.0564 29.383 46.03 29.1486 45.995C28.9143 45.9599 28.7294 45.9268 28.594 45.8958C28.4574 45.8648 28.2989 45.8182 28.1184 45.7562C27.9367 45.6941 27.78 45.605 27.6484 45.489C27.5168 45.3743 27.4059 45.2327 27.3156 45.064C27.159 44.8063 27.0969 44.4892 27.1295 44.1128C27.1621 43.7364 27.2611 43.4328 27.4266 43.2021C27.6158 42.9282 27.8383 42.709 28.094 42.5444C28.3484 42.3798 28.5928 42.2712 28.8271 42.2185C29.0628 42.1659 29.2834 42.1369 29.4889 42.1315C29.6945 42.1275 29.863 42.1342 29.9946 42.1517L30.192 42.1659C30.2585 42.0769 30.2917 41.9217 30.2917 41.7004C30.2917 41.4792 30.2296 41.355 30.1056 41.3281C29.9827 41.266 29.816 41.2525 29.6055 41.2876C29.3962 41.3227 29.2483 41.3537 29.1618 41.3807C29.0753 41.4077 28.9312 41.4677 28.7294 41.5608C28.5276 41.6539 28.3728 41.718 28.265 41.7531C28.052 41.8327 27.8959 41.7065 27.7969 41.3746C27.6979 41.0414 27.6898 40.8309 27.7725 40.7432C28.0846 40.5125 28.4549 40.3398 28.8836 40.2251C29.3122 40.1091 29.7383 40.1064 30.162 40.217C30.5856 40.3276 30.8839 40.5779 31.0568 40.9678C31.1721 41.2255 31.2361 41.5116 31.2486 41.8259C31.2611 42.1403 31.2404 42.4216 31.1866 42.6698C31.1339 42.9181 31.0725 43.2176 31.0023 43.5684C30.9321 43.9179 30.8889 44.2167 30.8726 44.465C30.8062 45.5821 30.6865 46.2608 30.5135 46.5009C30.3907 46.6507 30.2428 46.6682 30.0698 46.5535ZM29.8461 44.9446C29.8712 44.8205 29.9088 44.6653 29.9589 44.4791C30.0078 44.2929 30.0466 44.1425 30.0755 44.0278C30.1043 43.9118 30.1168 43.7721 30.1131 43.6089C30.1081 43.4443 30.073 43.2777 30.0078 43.109C29.8762 43.163 29.6763 43.2142 29.4081 43.2628C29.1411 43.3114 28.9186 43.3552 28.7407 43.3944C28.5639 43.4348 28.4016 43.5327 28.2538 43.6878C28.1059 43.843 28.0275 44.0535 28.0188 44.3192C28.0188 44.4973 28.1692 44.6572 28.47 44.7989C28.7708 44.9406 29.0571 45.0154 29.3291 45.0235C29.5998 45.033 29.7722 45.0067 29.8461 44.9446Z" fill="black"/>
<path d="M31.6625 40.822C31.7365 40.1043 32.058 39.4573 32.627 38.8812C32.8413 38.6599 33.1007 38.4785 33.4053 38.3368C33.7099 38.1938 34.0125 38.1095 34.3133 38.0838C34.6129 38.0568 34.8905 38.1257 35.1462 38.2903C35.4019 38.4535 35.5748 38.7173 35.6651 39.0816C35.6814 39.2057 35.6463 39.3136 35.5598 39.4054C35.4733 39.4985 35.3768 39.5362 35.2703 39.5187C35.1713 39.5106 35.0064 39.4755 34.7758 39.4135C34.5452 39.3514 34.3823 39.3183 34.287 39.3143C34.193 39.3089 34.0226 39.3332 33.7757 39.3872C33.4373 39.5113 33.1778 39.7083 32.9973 39.9781C32.8156 40.248 32.7147 40.5495 32.6947 40.8828C32.6734 41.2147 32.6959 41.5472 32.7623 41.8805C32.8288 42.2124 32.9315 42.5376 33.0707 42.856C33.1208 42.8479 33.436 42.7082 34.0163 42.437C34.5966 42.1672 34.9895 42.068 35.1951 42.1395C35.3104 42.1476 35.3906 42.2137 35.4357 42.3379C35.4821 42.462 35.4802 42.5861 35.4301 42.7103C35.3724 42.8695 35.1894 43.0179 34.8811 43.1555C34.5715 43.2931 34.2726 43.4193 33.9843 43.5339C33.6961 43.65 33.5438 43.7653 33.5275 43.88C33.4861 44.0932 33.5977 44.3745 33.8621 44.7239C34.1253 45.0747 34.2776 45.321 34.319 45.4626C34.3929 45.6218 34.3127 45.7507 34.0783 45.8492C33.8427 45.9463 33.6428 45.9591 33.4786 45.8876C33.2731 45.746 33.0675 45.4734 32.862 45.07C32.6552 44.6666 32.4615 44.4076 32.2811 44.2929C32.256 44.2834 32.1614 44.2834 31.9972 44.2929C31.8317 44.3023 31.7039 44.2935 31.6137 44.2666C31.5309 44.2747 31.4689 44.2261 31.4275 44.1209C31.3874 44.0143 31.3755 43.9077 31.3918 43.8011C31.4244 43.739 31.5253 43.6547 31.6945 43.5481C31.8625 43.4415 31.9427 43.3221 31.9351 43.1899C31.9264 43.0212 31.8725 42.6597 31.7735 42.1051C31.6757 41.552 31.6387 41.1243 31.6625 40.822Z" fill="black"/>
<path d="M35.9365 42.5241C35.9202 41.8589 36.1138 41.3226 36.5174 40.9151C36.921 40.5077 37.4236 40.3485 38.0252 40.4375C38.519 40.5077 38.9489 40.7647 39.3149 41.2086C39.6821 41.6511 39.8613 42.1476 39.8525 42.6981C39.7786 42.9464 39.4389 43.2628 38.8336 43.6473C38.2282 44.0332 37.8848 44.2706 37.8033 44.3597C37.762 44.3678 37.71 44.4028 37.6473 44.4649C37.5859 44.527 37.5715 44.585 37.6041 44.639C37.7031 44.8332 37.8271 44.9702 37.9763 45.0498C38.1242 45.1307 38.2909 45.153 38.4764 45.1166C38.6606 45.0815 38.8292 45.0329 38.9821 44.9709C39.135 44.9088 39.3142 44.8204 39.5198 44.7057C39.7341 44.8825 39.8018 45.1193 39.7228 45.4161C39.6451 45.7129 39.4784 45.8836 39.2227 45.9281C39.2064 45.9281 39.1162 45.9436 38.952 45.9747C38.7866 46.0057 38.6832 46.0232 38.6418 46.0273C38.6005 46.0327 38.5102 46.0415 38.3711 46.0536C38.2307 46.0671 38.1236 46.0671 38.0496 46.0536C37.9757 46.0415 37.8848 46.0239 37.777 46.001C37.6705 45.9794 37.5677 45.9463 37.4687 45.9018C36.4811 45.4228 35.9703 44.2969 35.9365 42.5241ZM37.2845 43.2021C38.0252 43.167 38.4695 42.8877 38.6174 42.3642C38.749 42.0539 38.6418 41.8171 38.2959 41.6538C37.95 41.4892 37.6417 41.4825 37.3709 41.6336C37.2055 41.7307 37.0958 41.9055 37.0419 42.1578C36.9893 42.4114 36.9918 42.6469 37.0495 42.8641C37.1071 43.0813 37.1854 43.194 37.2845 43.2021Z" fill="black"/>
<path d="M40.409 42.1518C40.3928 42.0196 40.3495 41.8516 40.2793 41.6479C40.2091 41.4428 40.1515 41.2674 40.1064 41.1217C40.0612 40.976 40.0468 40.8188 40.0631 40.6501C40.0794 40.4815 40.1534 40.3351 40.285 40.211C40.5895 39.9276 40.8878 39.9229 41.1798 40.1968C41.4731 40.472 41.5866 40.8316 41.5201 41.2755C41.6768 41.2485 41.8335 41.1662 41.9901 41.0286C42.1468 40.891 42.274 40.7561 42.3718 40.6238C42.4708 40.4903 42.6049 40.3837 42.7741 40.3041C42.9433 40.2245 43.1263 40.2157 43.323 40.2778C43.4058 40.3128 43.4597 40.3371 43.4847 40.3506C43.5085 40.3641 43.5555 40.3884 43.6257 40.4235C43.6959 40.4586 43.7392 40.4896 43.7554 40.5166C43.7717 40.5436 43.7943 40.5793 43.8231 40.6238C43.852 40.667 43.8582 40.7156 43.8419 40.7695C43.8256 40.8222 43.7968 40.8795 43.7554 40.9416C43.5988 41.1817 43.313 41.4853 42.8982 41.8523C42.4821 42.2206 42.1875 42.5424 42.0146 42.8176C41.9481 42.9148 41.9087 43.074 41.8961 43.2953C41.8848 43.5165 41.8623 43.6676 41.8284 43.7486C41.673 44.0049 41.7144 44.293 41.9525 44.6128C42.0766 44.7801 42.1261 45.0013 42.101 45.2766C42.076 45.5518 41.9851 45.7738 41.8284 45.9424C41.7056 46.1367 41.5308 46.2386 41.3039 46.248C41.0771 46.2561 40.9022 46.1758 40.7794 46.0072C40.639 45.91 40.577 45.711 40.5933 45.4101C40.6271 44.6209 40.5657 43.5347 40.409 42.1518Z" fill="black"/>
<path d="M46.633 40.3303C46.7069 40.3654 46.8573 40.4295 47.0842 40.5226C47.311 40.6157 47.4777 40.6892 47.5842 40.7432C47.6908 40.7958 47.8142 40.8822 47.9546 41.0022C48.095 41.1223 48.1978 41.2572 48.2629 41.407C48.3131 41.5055 48.3112 41.6296 48.2573 41.7794C48.2034 41.9305 48.1395 42.0324 48.0655 42.085C47.8926 42.201 47.6582 42.17 47.3624 41.9919C47.0654 41.8151 46.7915 41.6512 46.5408 41.5001C46.2889 41.3503 45.9862 41.3686 45.6328 41.5547C45.4761 41.6694 45.4718 41.8421 45.6196 42.0728C45.7688 42.3036 45.9255 42.4499 46.0896 42.512C46.9457 42.8399 47.5962 43.2251 48.0411 43.6676C48.2053 43.8808 48.2773 44.129 48.2573 44.4124C48.2372 44.6957 48.1526 44.9662 48.0035 45.2239C47.7904 45.6138 47.4407 45.9215 46.9544 46.1468C46.4682 46.3734 45.97 46.4294 45.4598 46.3147C44.9497 46.1987 44.5794 45.8837 44.3488 45.3696C44.266 45.1929 44.2949 45.0182 44.4352 44.8455C44.5744 44.6728 44.7386 44.577 44.9278 44.5581C45.0356 44.55 45.1409 44.639 45.2436 44.8252C45.3464 45.0114 45.431 45.122 45.4974 45.1571C45.7857 45.3339 46.1229 45.3406 46.5089 45.1774C46.8962 45.0128 47.0898 44.749 47.0898 44.3861C47.0898 44.297 47.0259 44.1931 46.898 44.0744C46.7702 43.9543 46.6449 43.8632 46.522 43.8012C46.4318 43.7567 46.23 43.6656 45.9167 43.528C45.6034 43.3903 45.379 43.2865 45.2436 43.2163C45.1083 43.1448 44.9479 43.0247 44.7624 42.8561C44.5769 42.6888 44.439 42.4985 44.3488 42.2853C44.1996 41.9575 44.261 41.6094 44.533 41.2411C44.805 40.8727 45.1572 40.5982 45.5896 40.4174C46.022 40.2352 46.3698 40.2062 46.633 40.3303Z" fill="black"/>
<path d="M49.8196 44.3597C50.0013 44.4838 50.0897 44.7631 50.0847 45.1976C50.0809 45.632 49.9556 45.9288 49.7087 46.088C49.3954 46.2742 49.1215 46.2607 48.8871 46.0476C48.6528 45.8357 48.5193 45.5524 48.4867 45.1976C48.4616 44.9574 48.4942 44.7577 48.5844 44.5985C48.6747 44.4393 48.7944 44.3307 48.9435 44.2727C49.0914 44.2147 49.2475 44.1951 49.4116 44.214C49.5771 44.2315 49.7131 44.2801 49.8196 44.3597Z" fill="black"/>
<path d="M52.1545 40.3304C52.162 40.2508 52.1908 40.049 52.241 39.7252C52.2899 39.4014 52.3224 39.1512 52.3387 38.9744C52.3726 38.6735 52.5418 38.5008 52.8463 38.4563C53.1509 38.4118 53.4185 38.4779 53.6491 38.6546C53.7556 38.7707 53.7763 38.9218 53.7111 39.108C53.389 39.8608 53.228 40.7648 53.228 41.8199C53.2944 41.8104 53.4097 41.7969 53.5739 41.7794C54.3071 41.6728 54.752 41.691 54.9087 41.834C54.9989 41.9312 55.0196 42.0729 54.9707 42.259C54.9457 42.3467 54.9043 42.4243 54.8467 42.4918C54.789 42.5579 54.7088 42.6112 54.606 42.6517C54.5032 42.6908 54.4124 42.7238 54.3334 42.7508C54.2557 42.7778 54.1429 42.7954 53.995 42.8035C53.8471 42.8129 53.7381 42.8196 53.6679 42.8237C53.5977 42.8277 53.4799 42.8277 53.3145 42.8237C53.1503 42.8196 53.0519 42.8176 53.0193 42.8176C52.9779 43.1185 53.013 44.0225 53.1246 45.5295C53.2349 47.0366 53.2819 47.9095 53.2656 48.1483C53.2581 48.2819 53.2148 48.3905 53.1359 48.4742C53.0582 48.5592 52.9573 48.6017 52.8332 48.6017C52.6853 48.6017 52.5744 48.5727 52.5004 48.5146C52.4265 48.4566 52.3644 48.3433 52.3143 48.1746C52.2404 47.9534 52.1645 47.0764 52.0868 45.5437C52.0079 44.0096 51.9026 43.1138 51.771 42.8561C51.598 42.9991 51.4088 43.1104 51.2032 43.19C50.9977 43.2696 50.794 43.2871 50.5922 43.2426C50.3904 43.1981 50.2526 43.0652 50.1786 42.8439C50.1448 42.7549 50.163 42.653 50.2331 42.5383C50.3033 42.4223 50.3879 42.3292 50.4869 42.259C50.5935 42.197 50.8304 42.1235 51.1976 42.0385C51.5636 41.9548 51.8042 41.8374 51.9195 41.6863C51.9934 41.5892 52.043 41.4677 52.068 41.322C52.0931 41.175 52.1113 40.9948 52.1225 40.7817C52.1351 40.5698 52.1457 40.4194 52.1545 40.3304Z" fill="black"/>
<path d="M55.5251 42.1518C55.5088 42.0196 55.4656 41.8516 55.3954 41.6479C55.3264 41.4428 55.2694 41.2674 55.2243 41.1217C55.1779 40.976 55.1635 40.8188 55.1811 40.6501C55.1973 40.4815 55.2713 40.3351 55.4029 40.211C55.7075 39.9276 56.0057 39.9229 56.2978 40.1968C56.5898 40.472 56.7032 40.8316 56.6381 41.2755C56.7947 41.2485 56.9508 41.1662 57.1062 41.0286C57.2628 40.891 57.3907 40.7561 57.4897 40.6238C57.5887 40.4903 57.7228 40.3837 57.892 40.3041C58.06 40.2245 58.2429 40.2157 58.441 40.2778C58.5237 40.3128 58.577 40.3371 58.6008 40.3506C58.6258 40.3641 58.6735 40.3884 58.7437 40.4235C58.8138 40.4586 58.8571 40.4896 58.8734 40.5166C58.8897 40.5436 58.9122 40.5793 58.9411 40.6238C58.9699 40.667 58.9761 40.7156 58.9599 40.7695C58.9436 40.8222 58.9147 40.8795 58.8734 40.9416C58.7167 41.1817 58.4303 41.4853 58.0142 41.8523C57.5994 42.2206 57.3055 42.5424 57.1325 42.8176C57.0661 42.9148 57.0266 43.074 57.0141 43.2953C57.0015 43.5165 56.979 43.6676 56.9464 43.7486C56.7897 44.0049 56.8311 44.293 57.0705 44.6128C57.1933 44.7801 57.2428 45.0013 57.219 45.2766C57.1939 45.5518 57.103 45.7738 56.9464 45.9424C56.8223 46.1367 56.6475 46.2386 56.4219 46.248C56.195 46.2561 56.0202 46.1758 55.8973 46.0072C55.757 45.91 55.6949 45.711 55.7112 45.4101C55.7438 44.6209 55.6818 43.5347 55.5251 42.1518Z" fill="black"/>
<path d="M62.1714 46.5535C62.1062 46.509 62.0385 46.4179 61.9684 46.2803C61.8982 46.1427 61.8342 46.0739 61.7766 46.0739C61.6613 46.0564 61.4864 46.03 61.2521 45.995C61.0164 45.9599 60.831 45.9268 60.6956 45.8958C60.5602 45.8648 60.4017 45.8182 60.22 45.7562C60.0395 45.6941 59.8828 45.605 59.75 45.489C59.6184 45.3743 59.5074 45.2327 59.4172 45.064C59.2605 44.8063 59.1985 44.4892 59.2311 44.1128C59.2649 43.7364 59.3639 43.4328 59.5281 43.2021C59.7174 42.9282 59.9398 42.709 60.1955 42.5444C60.4512 42.3798 60.6962 42.2712 60.9306 42.2185C61.165 42.1659 61.3849 42.1369 61.5905 42.1315C61.7973 42.1275 61.9665 42.1342 62.0981 42.1517L62.2955 42.1659C62.3606 42.0769 62.3932 41.9217 62.3932 41.7004C62.3932 41.4792 62.3318 41.355 62.209 41.3281C62.0849 41.266 61.9182 41.2525 61.7089 41.2876C61.4984 41.3227 61.3498 41.3537 61.2634 41.3807C61.1769 41.4077 61.0327 41.4677 60.831 41.5608C60.6292 41.6539 60.475 41.718 60.3685 41.7531C60.1542 41.8327 59.9975 41.7065 59.8985 41.3746C59.7995 41.0414 59.7913 40.8309 59.874 40.7432C60.1874 40.5125 60.5577 40.3398 60.9851 40.2251C61.4138 40.1091 61.8399 40.1064 62.2635 40.217C62.6884 40.3276 62.9873 40.5779 63.1603 40.9678C63.2756 41.2255 63.3395 41.5116 63.352 41.8259C63.3633 42.1403 63.3426 42.4216 63.29 42.6698C63.2361 42.9181 63.1741 43.2176 63.1039 43.5684C63.0337 43.9179 62.9904 44.2167 62.9742 44.465C62.909 45.5821 62.7899 46.2608 62.617 46.5009C62.4929 46.6507 62.3444 46.6682 62.1714 46.5535ZM61.9496 44.9446C61.9746 44.8205 62.0116 44.6653 62.0605 44.4791C62.1094 44.2929 62.1482 44.1425 62.177 44.0278C62.2059 43.9118 62.2184 43.7721 62.2146 43.6089C62.2109 43.4443 62.1758 43.2777 62.1094 43.109C61.9778 43.163 61.7785 43.2142 61.5115 43.2628C61.2433 43.3114 61.0208 43.3552 60.8441 43.3944C60.6674 43.4348 60.5045 43.5327 60.3553 43.6878C60.2074 43.843 60.1297 44.0535 60.1222 44.3192C60.1222 44.4973 60.272 44.6572 60.5715 44.7989C60.8723 44.9406 61.1587 45.0154 61.4307 45.0235C61.7026 45.033 61.8756 45.0067 61.9496 44.9446Z" fill="black"/>
<path d="M64.3825 42.9229C64.0128 42.1875 63.7414 41.5581 63.5685 41.0346C63.4933 40.8039 63.5384 40.6177 63.7038 40.4761C63.868 40.3344 64.0654 40.2683 64.296 40.2777C64.5266 40.2858 64.6833 40.3567 64.766 40.4902C64.9553 40.7385 65.1527 41.1837 65.3582 41.826C65.5638 42.4695 65.7618 42.9242 65.9523 43.19C66.1002 42.9242 66.2418 42.6139 66.3772 42.2591C66.5138 41.9042 66.6166 41.6114 66.6855 41.3807C66.7557 41.15 66.8591 40.7958 66.9957 40.3182C67.1311 39.8392 67.2238 39.5154 67.2739 39.3468C67.3805 39.0635 67.5879 38.9258 67.8962 38.9339C68.2058 38.9434 68.4796 39.0587 68.7178 39.28C68.7428 39.3326 68.7391 39.4169 68.7065 39.533C68.6727 39.6477 68.6557 39.7185 68.6557 39.7455C68.6319 39.7806 68.5787 39.8446 68.4959 39.9377C68.4132 40.0308 68.3599 40.1044 68.3361 40.1583C67.8912 41.9042 67.3065 43.5219 66.5821 45.0114C66.5069 45.1612 66.3646 45.2718 66.1553 45.3433C65.9448 45.4148 65.7737 45.375 65.6421 45.2239C65.5769 45.1619 65.513 45.0931 65.4503 45.0175C65.3889 44.9419 65.3275 44.8596 65.2661 44.7706C65.2047 44.6829 65.1533 44.606 65.1119 44.5399C65.0706 44.4724 65.0211 44.3834 64.9634 44.2727C64.9058 44.1621 64.8625 44.0778 64.8337 44.0198C64.8049 43.9631 64.7635 43.868 64.7096 43.7344C64.657 43.6008 64.6219 43.5145 64.6043 43.4754C64.588 43.4349 64.5492 43.3398 64.4878 43.19C64.4264 43.0389 64.3913 42.9498 64.3825 42.9229Z" fill="black"/>
<path d="M68.915 42.5241C68.8987 41.8589 69.0924 41.3226 69.4959 40.9151C69.8995 40.5077 70.4021 40.3485 71.0037 40.4375C71.4975 40.5077 71.9274 40.7647 72.2934 41.2086C72.6606 41.6511 72.8398 42.1476 72.831 42.6981C72.7571 42.9464 72.4175 43.2628 71.8121 43.6473C71.2067 44.0332 70.8627 44.2706 70.78 44.3597C70.7399 44.3678 70.6885 44.4028 70.6258 44.4649C70.5644 44.527 70.55 44.585 70.5826 44.639C70.6816 44.8332 70.805 44.9702 70.9529 45.0498C71.1021 45.1307 71.2688 45.153 71.453 45.1166C71.6385 45.0815 71.8077 45.0329 71.9606 44.9709C72.1123 44.9088 72.2915 44.8204 72.4983 44.7057C72.7114 44.8825 72.779 45.1193 72.7013 45.4161C72.6236 45.7129 72.4569 45.8836 72.2013 45.9281C72.185 45.9281 72.0941 45.9436 71.9287 45.9747C71.7645 46.0057 71.6617 46.0232 71.6203 46.0273C71.579 46.0327 71.4887 46.0415 71.3496 46.0536C71.2092 46.0671 71.1021 46.0671 71.0281 46.0536C70.9542 46.0415 70.8633 46.0239 70.7555 46.001C70.649 45.9794 70.5462 45.9463 70.4472 45.9018C69.4596 45.4228 68.9489 44.2969 68.915 42.5241ZM70.2611 43.2021C71.0031 43.167 71.448 42.8877 71.5959 42.3642C71.7275 42.0539 71.6203 41.8171 71.2744 41.6538C70.9285 41.4892 70.6195 41.4825 70.3476 41.6336C70.1834 41.7307 70.0743 41.9055 70.0205 42.1578C69.9678 42.4114 69.9703 42.6469 70.028 42.8641C70.0856 43.0813 70.1633 43.194 70.2611 43.2021Z" fill="black"/>
<path d="M73.5605 41.3807C73.568 41.1594 73.5492 40.8889 73.5041 40.5692C73.459 40.2507 73.4157 39.9694 73.3744 39.7252C73.333 39.481 73.3186 39.2173 73.3311 38.9339C73.3437 38.6506 73.3995 38.4023 73.4985 38.1892C73.5724 38.0219 73.704 37.8977 73.8933 37.8168C74.0825 37.7372 74.2617 37.7399 74.4309 37.8249C74.6001 37.9085 74.6929 38.0745 74.7092 38.3227C74.7167 38.3673 74.7086 38.4583 74.6847 38.5959C74.6597 38.7336 74.6471 38.8199 74.6471 38.855C74.6471 39.0587 74.6509 39.3555 74.6584 39.7455C74.6672 40.1354 74.6716 40.4902 74.6716 40.81C74.6716 41.1284 74.6634 41.4252 74.6471 41.7005C74.6309 42.0189 74.6409 42.4776 74.6772 43.0767C74.7148 43.6744 74.7192 44.2039 74.6904 44.6653C74.6616 45.1268 74.5644 45.5525 74.399 45.9424C74.3175 46.1367 74.1797 46.2473 73.9854 46.2743C73.7924 46.3013 73.6094 46.2567 73.4364 46.1407C73.3462 46.0786 73.2823 45.9748 73.2447 45.829C73.2083 45.682 73.2102 45.5423 73.2503 45.4101C73.3581 45.0107 73.4327 44.6053 73.474 44.1938C73.5154 43.7809 73.5379 43.2622 73.5417 42.6375C73.5455 42.0128 73.5517 41.5939 73.5605 41.3807Z" fill="black"/>
<path d="M30.4148 51.9685C30.4311 51.7351 30.4618 51.5738 30.507 51.4848C30.512 51.4699 30.5189 51.4565 30.5276 51.4443C30.5138 51.4376 30.4882 51.4301 30.4506 51.422C30.413 51.4126 30.386 51.4032 30.3697 51.3937C30.3284 51.3438 30.3152 51.2824 30.3302 51.2095C30.3453 51.1367 30.3735 51.0908 30.4148 51.0719C30.7332 50.9357 31.0628 50.91 31.4037 50.995C31.7446 51.08 32.0291 51.2622 32.2572 51.5415C32.2648 51.6251 32.2635 51.7054 32.2535 51.7823C32.2422 51.8578 32.2259 51.9253 32.2046 51.9847C32.1845 52.0454 32.1501 52.1054 32.1012 52.1648C32.0523 52.2242 32.0084 52.2741 31.9696 52.3145C31.9307 52.355 31.8743 52.3989 31.8004 52.4461C31.7252 52.4947 31.6663 52.5324 31.6237 52.5594C31.5798 52.5851 31.5128 52.6174 31.4225 52.6566C31.3335 52.6957 31.2696 52.7234 31.2308 52.7395C31.1919 52.7557 31.1248 52.782 31.0296 52.8185C30.9356 52.8536 30.8761 52.8758 30.851 52.8853C30.8435 52.9622 30.8535 53.0775 30.8811 53.2313C30.9086 53.3851 30.9143 53.5012 30.898 53.5794C30.8729 53.6563 30.8228 53.7191 30.7476 53.7676C30.6724 53.8149 30.5922 53.8263 30.507 53.802C30.4932 53.794 30.4625 53.7595 30.4148 53.6988C30.3597 53.2334 30.3597 52.6566 30.4148 51.9685ZM30.8717 51.8653C30.8717 51.9003 30.8635 51.9617 30.8472 52.0494C30.8309 52.1385 30.8247 52.2086 30.8284 52.2599C30.8322 52.3125 30.8554 52.3463 30.898 52.3611C31.0584 52.4205 31.2364 52.3827 31.4319 52.2478C31.6274 52.1115 31.7484 51.9435 31.7948 51.7438C31.6782 51.648 31.5798 51.5732 31.4996 51.5192C31.4194 51.4666 31.3185 51.4214 31.1969 51.3836C31.0753 51.3458 30.96 51.3418 30.851 51.3715C30.846 51.3715 30.8504 51.3782 30.8642 51.3917C30.8779 51.4052 30.8942 51.4247 30.913 51.4504C30.9331 51.476 30.9431 51.499 30.9431 51.5192C30.9431 51.561 30.9312 51.6197 30.9074 51.6953C30.8836 51.7695 30.8717 51.8261 30.8717 51.8653Z" fill="black"/>
<path d="M32.4937 52.1649C32.4962 52.0907 32.4899 51.9997 32.4749 51.8917C32.4598 51.7838 32.4454 51.6893 32.4316 51.6084C32.4179 51.5261 32.4128 51.437 32.4166 51.3412C32.4204 51.2454 32.4392 51.1618 32.473 51.0903C32.4981 51.0336 32.5426 50.9918 32.6065 50.9648C32.6691 50.9378 32.7293 50.9385 32.787 50.9668C32.8434 50.9952 32.8747 51.0512 32.881 51.1348C32.8835 51.1497 32.8803 51.1807 32.8716 51.2279C32.8628 51.2738 32.8584 51.3028 32.8584 51.3149C32.8584 51.3837 32.8603 51.4836 32.864 51.6145C32.8665 51.7453 32.8678 51.8647 32.8678 51.9727C32.8678 52.0793 32.8647 52.1791 32.8584 52.2722C32.8534 52.3801 32.8571 52.5346 32.8697 52.7356C32.8822 52.9367 32.8835 53.1148 32.8734 53.2699C32.8634 53.4251 32.8308 53.5681 32.7757 53.699C32.7481 53.7651 32.7017 53.8029 32.6366 53.8123C32.5714 53.8204 32.51 53.8056 32.4523 53.7678C32.421 53.7462 32.3991 53.7111 32.3865 53.6626C32.3752 53.6126 32.3765 53.5654 32.3903 53.5209C32.4254 53.386 32.4498 53.2497 32.4636 53.1121C32.4774 52.9731 32.4855 52.7984 32.488 52.5879C32.4893 52.3774 32.4912 52.2364 32.4937 52.1649Z" fill="black"/>
<path d="M52.0595 52.1649C52.0633 52.0907 52.0577 51.9997 52.0426 51.8917C52.0263 51.7838 52.0113 51.6893 51.9975 51.6084C51.9837 51.5261 51.9793 51.437 51.9843 51.3412C51.9881 51.2454 52.0063 51.1618 52.0389 51.0903C52.0639 51.0336 52.1084 50.9918 52.1723 50.9648C52.2363 50.9378 52.2964 50.9385 52.3528 50.9668C52.4105 50.9952 52.4418 51.0512 52.4468 51.1348C52.4493 51.1497 52.4468 51.1807 52.4393 51.2279C52.4305 51.2738 52.4261 51.3028 52.4261 51.3149C52.4261 51.3837 52.4274 51.4836 52.4299 51.6145C52.4337 51.7453 52.4355 51.8647 52.4355 51.9727C52.4355 52.0793 52.4324 52.1791 52.4261 52.2722C52.4211 52.3801 52.4249 52.5346 52.4374 52.7356C52.45 52.9367 52.4512 53.1148 52.4412 53.2699C52.4312 53.4251 52.3986 53.5681 52.3434 53.699C52.3159 53.7651 52.2695 53.8029 52.2043 53.8123C52.1391 53.8204 52.0771 53.8056 52.0182 53.7678C51.9881 53.7462 51.9668 53.7111 51.9543 53.6626C51.9417 53.6126 51.9424 53.5654 51.9561 53.5209C51.9925 53.386 52.0176 53.2497 52.0313 53.1121C52.0451 52.9731 52.0527 52.7984 52.0539 52.5879C52.0552 52.3774 52.057 52.2364 52.0595 52.1649Z" fill="black"/>
<path opacity="0.8" d="M46.0761 37.0305C53.8555 37.0305 60.1619 30.2417 60.1619 21.8672C60.1619 13.4927 53.8555 6.70386 46.0761 6.70386C38.2967 6.70386 31.9902 13.4927 31.9902 21.8672C31.9902 30.2417 38.2967 37.0305 46.0761 37.0305Z" fill="#004CF2"/>
<path opacity="0.8" d="M54.3885 25.0357C59.2652 25.0357 63.2185 20.78 63.2185 15.5303C63.2185 10.2806 59.2652 6.0249 54.3885 6.0249C49.5119 6.0249 45.5586 10.2806 45.5586 15.5303C45.5586 20.78 49.5119 25.0357 54.3885 25.0357Z" fill="#FBA536"/>
<path opacity="0.7" d="M49.0191 4.4234C50.1579 4.4234 51.0811 3.42958 51.0811 2.20364C51.0811 0.977706 50.1579 -0.0161133 49.0191 -0.0161133C47.8802 -0.0161133 46.957 0.977706 46.957 2.20364C46.957 3.42958 47.8802 4.4234 49.0191 4.4234Z" fill="#FF5362"/>
<path opacity="0.8" d="M42 30.0147C48.1538 30.0147 53.1425 24.6444 53.1425 18.0198C53.1425 11.3952 48.1538 6.0249 42 6.0249C35.8461 6.0249 30.8574 11.3952 30.8574 18.0198C30.8574 24.6444 35.8461 30.0147 42 30.0147Z" fill="#6319C3"/>
<path opacity="0.8" d="M52.4313 36.2817C56.9239 36.2817 60.5658 32.3612 60.5658 27.525C60.5658 22.6888 56.9239 18.7683 52.4313 18.7683C47.9388 18.7683 44.2969 22.6888 44.2969 27.525C44.2969 32.3612 47.9388 36.2817 52.4313 36.2817Z" fill="#FF5362"/>
<path opacity="0.7" d="M28.2052 20.8052C28.7499 20.8052 29.1916 21.2806 29.1916 21.8671C29.1916 22.4535 28.7499 22.929 28.2052 22.929C27.6604 22.929 27.2188 22.4535 27.2188 21.8671C27.2188 21.2806 27.6604 20.8052 28.2052 20.8052Z" fill="#6319C3"/>
<path opacity="0.7" d="M63.5247 26.05C64.1477 26.05 64.6528 25.5063 64.6528 24.8356C64.6528 24.1648 64.1477 23.6211 63.5247 23.6211C62.9016 23.6211 62.3965 24.1648 62.3965 24.8356C62.3965 25.5063 62.9016 26.05 63.5247 26.05Z" fill="#FF5362"/>
<path opacity="0.7" d="M67.9404 22.929C69.2601 22.929 70.33 21.7773 70.33 20.3566C70.33 18.9359 69.2601 17.7842 67.9404 17.7842C66.6206 17.7842 65.5508 18.9359 65.5508 20.3566C65.5508 21.7773 66.6206 22.929 67.9404 22.929Z" fill="#004CF2"/>
<path opacity="0.7" d="M32.3662 35.8772C33.0518 35.8772 33.6075 35.279 33.6075 34.541C33.6075 33.8031 33.0518 33.2048 32.3662 33.2048C31.6807 33.2048 31.125 33.8031 31.125 34.541C31.125 35.279 31.6807 35.8772 32.3662 35.8772Z" fill="#FBA536"/>
<path d="M43.7076 18.3794C44.878 18.3794 45.8299 17.3546 45.8299 16.0954C45.8299 14.8356 44.878 13.8108 43.7076 13.8108C42.5379 13.8108 41.5859 14.8356 41.5859 16.0954C41.5859 17.3546 42.5379 18.3794 43.7076 18.3794ZM43.7076 15.0644C44.2357 15.0644 44.6654 15.5269 44.6654 16.0954C44.6654 16.6639 44.2357 17.1259 43.7076 17.1259C43.1795 17.1259 42.7504 16.6639 42.7504 16.0954C42.7504 15.5269 43.1795 15.0644 43.7076 15.0644Z" fill="#FBA536"/>
<path d="M50.8756 18.3794C52.0459 18.3794 52.9979 17.3546 52.9979 16.0954C52.9979 14.8356 52.0459 13.8108 50.8756 13.8108C49.7059 13.8108 48.7539 14.8356 48.7539 16.0954C48.7545 17.3546 49.7065 18.3794 50.8756 18.3794ZM50.8756 15.0644C51.4037 15.0644 51.8334 15.5269 51.8334 16.0954C51.8334 16.6639 51.4043 17.1259 50.8756 17.1259C50.3481 17.1259 49.9184 16.6639 49.9184 16.0954C49.9184 15.5269 50.3481 15.0644 50.8756 15.0644Z" fill="#FBA536"/>
<path d="M51.4691 19.1628H43.115C40.9235 19.1628 39.1406 21.0821 39.1406 23.4413V25.0615C39.1406 25.4081 39.4015 25.6883 39.7229 25.6883C40.0443 25.6883 40.3051 25.4081 40.3051 25.0615V23.4413C40.3051 21.7734 41.5657 20.4164 43.115 20.4164H46.7098V21.5478C46.7215 22.0185 47.2024 22.3156 47.5855 22.0887C47.8068 21.9514 48.1288 22.1463 48.1288 22.429C48.1288 22.7073 47.8021 22.9047 47.5867 22.7694C47.203 22.5418 46.7215 22.8383 46.7092 23.3096V24.4347H43.3334C43.0126 24.4347 42.7511 24.1539 42.7511 23.8079V22.429C42.7511 22.0824 42.4903 21.8022 42.1689 21.8022C41.8475 21.8022 41.5866 22.0824 41.5866 22.429V23.8079C41.5866 24.8446 42.3703 25.6883 43.3334 25.6883H51.2508C52.2138 25.6883 52.9975 24.8446 52.9975 23.8079V22.4259C52.9975 22.0793 52.7372 21.7991 52.4153 21.7991C52.0933 21.7991 51.833 22.0793 51.833 22.4259V23.8079C51.833 24.1539 51.5722 24.4347 51.2508 24.4347H47.8743V24.0624C48.6656 24.001 49.2938 23.2959 49.2938 22.429C49.2938 21.5622 48.6656 20.857 47.8743 20.795V20.4158H51.4691C53.0185 20.4158 54.279 21.7728 54.279 23.4406V25.0634C54.279 25.41 54.5393 25.6902 54.8613 25.6902C55.1832 25.6902 55.4435 25.41 55.4435 25.0634V23.4406C55.4435 21.0821 53.6607 19.1628 51.4691 19.1628Z" fill="#FBA536"/>
</g>
<defs>
<clipPath id="clip0_55_2831">
<rect width="94" height="51" fill="white"/>
</clipPath>
</defs>
</svg>
